<svg version="1.1" id="Layer_1" xmlns="http://www.w3.org/2000/svg" xmlns:xlink="http://www.w3.org/1999/xlink" x="0px" y="0px" viewBox="0 0 400 400" style="enable-background:new 0 0 400 400;" xml:space="preserve" transform="matrix(-1,1.2246467991473532e-16,-1.2246467991473532e-16,-1,0,0)">
<style type="text/css">
	.st0{fill:#FFFFFF;}
</style>
<path class="st0" d="M294,272.1l-18.4-18.4c-0.4-0.4-1-0.4-1.4,0l0,0L217.1,311c-0.4,0.4-1,0.4-1.4,0c-0.2-0.2-0.3-0.5-0.3-0.7
	l-0.6-175.8c0-0.6-0.4-1-1-1l-26,0.1c-0.6,0-1,0.4-1,1l0.7,178.5c0,0.6-0.4,1-1,1c-0.3,0-0.5-0.1-0.7-0.3l-60-59.8
	c-0.4-0.4-1-0.4-1.4,0l0,0L106,272.4c-0.4,0.4-0.4,1,0,1.4l0,0l93.5,93.2c0.4,0.4,1,0.4,1.4,0l93.1-93.5
	C294.4,273.1,294.4,272.5,294,272.1L294,272.1z"></path>
</svg>